<?xml version="1.0" encoding="utf-8"?>
<!-- Generator: Adobe Illustrator 26.5.0, SVG Export Plug-In . SVG Version: 6.00 Build 0)  -->
<svg version="1.1" id="Layer_1" xmlns="http://www.w3.org/2000/svg" xmlns:xlink="http://www.w3.org/1999/xlink" x="0px" y="0px"
	 viewBox="0 0 2016 2016" style="enable-background:new 0 0 2016 2016;" xml:space="preserve">
<style type="text/css">
	.st0{fill:#FFFFFF;}
</style>
<g>
	<g>
		<path class="st0" d="M2016,2016c-671.95,0-1343.9,0-2016,0C0,1344.12,0,672.17,0,0c671.9,0,1343.95,0,2016,0
			C2016,671.86,2016,1343.9,2016,2016z M1642.11,545.89c-128.4-169.03-295.43-275.21-504.51-309.99
			c-208.97-34.77-402.54,9.03-576.68,129.66c-322.58,223.46-430.01,651.27-249.19,1002.66c180.68,351.1,595.2,512.8,965.89,377.14
			c120.42-44.07,224.03-113.59,310.4-208.36c86.67-95.1,146.75-205.05,178.93-329.62c45.49-176.11,30.67-347.89-40.66-515.01
			c1.32-1.12,2.29-2.02,3.35-2.82c33.68-25.26,67.37-50.5,101.05-75.76c19.71-14.78,39.41-29.56,59.09-44.38
			c9.54-7.19,14.69-16.66,14.68-28.76c-0.01-55.78,0.06-111.56-0.04-167.34c-0.02-13.75-9.33-25.58-22.47-29.32
			c-12.38-3.52-22.97-0.05-32.15,8.46c-6.57,6.09-12.93,12.4-19.49,18.51c-61.15,56.94-122.31,113.86-183.48,170.78
			C1645.37,543.09,1643.84,544.37,1642.11,545.89z"/>
		<path d="M1642.11,545.89c1.74-1.53,3.27-2.8,4.72-4.16c61.17-56.92,122.33-113.84,183.48-170.78
			c6.56-6.11,12.92-12.42,19.49-18.51c9.18-8.51,19.77-11.98,32.15-8.46c13.14,3.74,22.45,15.57,22.47,29.32
			c0.1,55.78,0.03,111.56,0.04,167.34c0,12.1-5.14,21.57-14.68,28.76c-19.68,14.82-39.38,29.6-59.09,44.38
			c-33.68,25.26-67.37,50.5-101.05,75.76c-1.06,0.79-2.03,1.7-3.35,2.82c71.33,167.12,86.15,338.9,40.66,515.01
			c-32.17,124.57-92.26,234.52-178.93,329.62c-86.37,94.77-189.98,164.29-310.4,208.36c-370.69,135.66-785.21-26.03-965.89-377.14
			c-180.83-351.39-73.4-779.2,249.19-1002.66c174.14-120.63,367.7-164.42,576.68-129.66
			C1346.68,270.69,1513.7,376.87,1642.11,545.89z M1557.74,818.74c-2.11,1.46-3.22,2.17-4.27,2.97
			c-47.12,35.34-94.22,70.68-141.34,106.02c-98.89,74.17-197.78,148.33-296.67,222.49c-28.31,21.23-56.65,42.4-84.92,63.68
			c-8.46,6.37-17.78,9.99-28.24,7.51c-5.74-1.36-11.39-4.09-16.42-7.25c-134.09-84.14-268.09-168.41-402.09-252.69
			c-3.21-2.02-6.48-4.09-9.27-6.63c-8.91-8.13-12.64-18.24-10.52-30.26c0.5-2.86,1.23-5.69,2.11-8.46
			c10.25-32.19,20.49-64.39,30.92-96.52c1.64-5.07,3.81-10.06,6.42-14.71c10.08-17.93,31.61-22.06,47.75-9.29
			c3.33,2.63,6.37,5.64,9.46,8.57c114.57,109.01,229.12,218.03,343.69,327.04c1.42,1.35,2.94,2.58,4.77,4.17
			c3.5-3.23,6.78-6.23,10.04-9.26c161.16-150.04,322.32-300.08,483.45-450.15c7.09-6.61,7.04-3.93,3.72-14.09
			c-21.91-66.98-43.89-133.94-65.87-200.9c-3.97-12.09-8.01-24.16-12.16-36.66c-2.7,0-5.13,0-7.57,0
			c-243.26,0.08-486.52,0.15-729.77,0.24c-32.26,0.01-64.51,0.13-96.77,0.2c-9.84,0.02-10.48,0.46-13.45,9.48
			c-3.57,10.84-7.1,21.69-10.64,32.53c-56.91,174.18-113.81,348.36-170.72,522.54c-25.08,76.78-50.21,153.54-75.23,230.33
			c-2.75,8.44-3.21,6.74,3.84,11.9c54.96,40.17,109.93,80.32,164.91,120.46c160.6,117.26,321.19,234.52,481.8,351.77
			c10.29,7.51,20.61,14.98,31.28,22.74c228.81-166.15,457.41-332.14,686.11-498.2C1647.26,1091.67,1602.65,955.68,1557.74,818.74z
			 M1646.73,1340.43c-1.12,0.68-2.29,1.28-3.35,2.05c-172.08,125.03-344.15,250.07-516.22,375.13c-0.13,0.09-0.15,0.39-0.16,0.59
			c-0.01,0.2,0.07,0.4,0.11,0.6c25.01-0.42,113.71-25.86,163.27-47.02c85.86-36.66,161.86-87.94,227.86-153.99
			C1570.4,1465.61,1613.43,1406.76,1646.73,1340.43z M883.24,1718.26c0.22-0.61,0.44-1.22,0.66-1.84
			c-170.66-124.6-341.31-249.2-511.97-373.8c-0.37,0.41-0.74,0.83-1.1,1.24c54.7,103.17,129.63,188.64,225.46,255.61
			C683.19,1660.22,778.98,1699.62,883.24,1718.26z M696.02,360.38c10.86,1.34,618.17,0.07,622.37-1.17
			C1134.43,267.27,891.9,262.8,696.02,360.38z M487.89,513.13c-0.45-0.2-0.91-0.41-1.36-0.61
			c-49.35,51.94-90.08,109.96-122.15,174.06c-32.17,64.29-54.24,131.91-66.13,202.81c-11.82,70.51-13.21,141.2-4,212.04
			c0.45,0.06,0.9,0.13,1.35,0.19C359.7,905.46,423.79,709.3,487.89,513.13z M1611.55,778.13
			c36.45,111.11,72.67,221.53,108.89,331.95c0.46-0.11,0.92-0.22,1.38-0.33c17.69-130.01,1.76-255.72-48.36-378.04
			C1652.43,747.48,1632.24,762.62,1611.55,778.13z M1523.87,505.66c-0.5,0.19-0.99,0.39-1.49,0.58
			c12.57,38.33,25.15,76.66,38.04,115.96c11.83-11.05,22.86-21.36,34.25-31.99C1573.01,559.91,1549.58,531.84,1523.87,505.66z"/>
		<path class="st0" d="M1557.74,818.74c44.91,136.94,89.52,272.93,134.34,409.58c-228.7,166.07-457.29,332.06-686.11,498.2
			c-10.67-7.76-20.99-15.23-31.28-22.74c-160.6-117.25-321.2-234.51-481.8-351.77c-54.98-40.14-109.95-80.29-164.91-120.46
			c-7.05-5.15-6.59-3.46-3.84-11.9c25.03-76.79,50.15-153.56,75.23-230.33c56.91-174.18,113.81-348.36,170.72-522.54
			c3.54-10.85,7.07-21.7,10.64-32.53c2.97-9.02,3.61-9.46,13.45-9.48c32.26-0.07,64.51-0.19,96.77-0.2
			c243.26-0.09,486.52-0.16,729.77-0.24c2.44,0,4.87,0,7.57,0c4.15,12.5,8.19,24.57,12.16,36.66
			c21.97,66.96,43.95,133.92,65.87,200.9c3.32,10.16,3.38,7.48-3.72,14.09c-161.13,150.07-322.29,300.11-483.45,450.15
			c-3.26,3.03-6.54,6.04-10.04,9.26c-1.83-1.59-3.36-2.82-4.77-4.17C889.77,1022.2,775.21,913.18,660.64,804.17
			c-3.08-2.93-6.13-5.93-9.46-8.57c-16.14-12.77-37.67-8.64-47.75,9.29c-2.61,4.64-4.78,9.64-6.42,14.71
			c-10.43,32.14-20.66,64.33-30.92,96.52c-0.88,2.76-1.6,5.6-2.11,8.46c-2.12,12.02,1.62,22.12,10.52,30.26
			c2.79,2.54,6.05,4.61,9.27,6.63c134,84.28,268,168.55,402.09,252.69c5.03,3.16,10.69,5.88,16.42,7.25
			c10.46,2.49,19.78-1.14,28.24-7.51c28.27-21.28,56.61-42.45,84.92-63.68c98.89-74.16,197.78-148.32,296.67-222.49
			c47.11-35.34,94.22-70.68,141.34-106.02C1554.52,820.91,1555.63,820.2,1557.74,818.74z"/>
		<path class="st0" d="M1646.73,1340.43c-33.3,66.33-76.33,125.18-128.47,177.36c-66,66.05-142.01,117.34-227.86,153.99
			c-49.56,21.16-138.26,46.6-163.27,47.02c-0.04-0.2-0.12-0.4-0.11-0.6c0.01-0.2,0.03-0.5,0.16-0.59
			c172.06-125.06,344.13-250.1,516.22-375.13C1644.44,1341.71,1645.61,1341.11,1646.73,1340.43z"/>
		<path class="st0" d="M883.24,1718.26c-104.26-18.64-200.05-58.04-286.96-118.78c-95.83-66.97-170.76-152.45-225.46-255.61
			c0.37-0.41,0.74-0.83,1.1-1.24c170.66,124.6,341.31,249.2,511.97,373.8C883.68,1717.03,883.46,1717.65,883.24,1718.26z"/>
		<path class="st0" d="M696.02,360.38c195.87-97.58,438.4-93.11,622.37-1.17C1314.19,360.46,706.88,361.72,696.02,360.38z"/>
		<path class="st0" d="M487.89,513.13C423.79,709.3,359.7,905.46,295.6,1101.62c-0.45-0.06-0.9-0.13-1.35-0.19
			c-9.21-70.84-7.83-141.53,4-212.04c11.89-70.9,33.96-138.52,66.13-202.81c32.07-64.1,72.8-122.13,122.15-174.06
			C486.98,512.72,487.43,512.93,487.89,513.13z"/>
		<path class="st0" d="M1611.55,778.13c20.69-15.51,40.88-30.65,61.91-46.42c50.13,122.33,66.06,248.03,48.36,378.04
			c-0.46,0.11-0.92,0.22-1.38,0.33C1684.22,999.66,1648,889.24,1611.55,778.13z"/>
		<path class="st0" d="M1523.87,505.66c25.7,26.18,49.14,54.25,70.8,84.55c-11.38,10.63-22.42,20.94-34.25,31.99
			c-12.89-39.31-25.47-77.63-38.04-115.96C1522.88,506.05,1523.38,505.85,1523.87,505.66z"/>
	</g>
</g>
</svg>
